<?xml version="1.0" standalone="no"?>
<!DOCTYPE svg PUBLIC "-//W3C//DTD SVG 20010904//EN"
 "http://www.w3.org/TR/2001/REC-SVG-20010904/DTD/svg10.dtd">
<svg version="1.0" xmlns="http://www.w3.org/2000/svg"
 width="269.000000pt" height="269.000000pt" viewBox="0 0 269.000000 269.000000"
 preserveAspectRatio="xMidYMid meet">
<metadata>
Created by potrace 1.14, written by Peter Selinger 2001-2017
</metadata>
<g transform="translate(0.000000,269.000000) scale(0.100000,-0.100000)"
fill="#000000" stroke="none">
<path d="M374 2675 c-134 -29 -235 -103 -287 -209 -58 -118 -57 -95 -54 -1141
1 -528 6 -970 9 -983 4 -13 10 -33 14 -45 42 -145 153 -244 314 -281 95 -23
1843 -23 1937 -1 167 40 261 122 316 277 l22 63 2 965 c3 1052 4 1028 -54
1146 -46 95 -118 155 -233 196 l-65 23 -930 2 c-747 1 -942 -1 -991 -12z"/>
</g>
</svg>
