<?xml version="1.0" standalone="no"?><!DOCTYPE svg PUBLIC "-//W3C//DTD SVG 1.1//EN" "http://www.w3.org/Graphics/SVG/1.1/DTD/svg11.dtd"><svg t="1715083410548" class="icon" viewBox="0 0 1024 1024" version="1.1" xmlns="http://www.w3.org/2000/svg" p-id="1372" xmlns:xlink="http://www.w3.org/1999/xlink" width="32" height="32"><path d="M354.242403 1019.967908v-388.82596H129.835757c-53.668262 0-97.571052-43.906774-97.571051-97.575036v-287.346329c0-50.763721 41.532143-92.303833 92.299848-92.303833h20.307879c50.759737 0 92.295864 41.536127 92.295864 92.299849v199.544733h117.074106V192.879032c0-89.443119 73.187253-162.61842 162.626388-162.61842h35.778841c89.43515 0 162.614435 73.183269 162.614436 162.61842v437.681211h109.169293v-154.66978c0-39.340788 32.189004-71.537761 71.533777-71.537761h15.737909c39.348757 0 71.537761 32.196973 71.537761 71.541746v222.729263c0 41.60386-34.037711 75.633602-75.625633 75.633602h-192.36506v245.710595" fill="#BAD9A3" p-id="1373"></path><path d="M872.832403 475.894448c0-30.22077 19.020956-56.158437 45.651889-66.597253-3.538041-0.541862-7.131863-0.916385-10.817322-0.916385h-15.737909c-39.348757 0-71.537761 32.200957-71.537761 71.541746v150.633703h52.441103v-154.661811zM442.988273 192.879032c0-77.16755 14.15615-142.183043 86.538578-158.582343h-16.694136c-89.43515 0-162.622404 73.175301-162.622404 162.614435v248.850208h92.777962V192.879032zM711.214038 1019.967908H442.992257v-388.82596H178.2368c-53.664278 0-69.33047-43.906774-69.33047-97.575036v-287.346329c0-41.257227-0.804825-76.418505 36.723116-88.148228-1.589728-0.079686-3.187425-0.119528-4.793089-0.119528h-20.303895C69.764756 157.948842 28.228629 199.484969 28.228629 250.252675v287.346329c0 53.668262 43.906774 97.571052 97.571052 97.571052h224.406646v388.82596m413.444831-249.738703v4.032092h139.92794c8.42277 0 16.514844-1.454262 24.104899-4.032092h-164.032839z" fill="#CDF0B4" p-id="1374"></path><path d="M370.37874 1019.967908v-388.82596a16.136337 16.136337 0 0 0-16.136337-16.136337H129.835757c-44.902844 0-81.434715-36.535855-81.434714-81.438699v-287.346329c0-41.998304 34.165208-76.17148 76.163511-76.17148h20.307879c41.994319 0 76.159527 34.173176 76.159527 76.167496v199.544733a16.136337 16.136337 0 0 0 16.136337 16.136337h117.074106a16.136337 16.136337 0 0 0 16.136337-16.136337V192.879032c0-80.76934 65.716727-146.482082 146.490051-146.482082h35.778841c80.761371 0 146.478098 65.716727 146.478099 146.482082v437.681211a16.136337 16.136337 0 0 0 16.136337 16.136337h109.169293a16.136337 16.136337 0 0 0 16.132352-16.136337v-154.66978c0-14.713949 5.78916-28.607136 16.295709-39.113684 10.502564-10.502564 24.387783-16.295708 39.105716-16.295708h15.737909c14.717933 0 28.607136 5.793144 39.1097 16.295708 10.502564 10.506548 16.295708 24.399735 16.295708 39.117669v222.729263c0 32.810552-26.694681 59.497265-59.49328 59.497265h-192.36506a16.136337 16.136337 0 0 0-16.136337 16.136337v245.710595h32.272674v-245.710595a16.136337 16.136337 0 0 1-16.136337 16.136337h192.361075c50.600366 0 91.765955-41.165589 91.765955-91.769939v-222.729263c0-23.339917-9.143924-45.333147-25.738454-61.935645-16.602498-16.606482-38.599712-25.750407-61.939629-25.750406h-15.737909c-23.339917 0-45.329162 9.147909-61.935644 25.750406-16.598514 16.594529-25.738454 38.591744-25.738454 61.935645v154.665795a16.136337 16.136337 0 0 1 16.136337-16.136337h-109.169293a16.136337 16.136337 0 0 1 16.136337 16.136337V192.879032c0-98.571106-80.191619-178.750772-178.754756-178.750772h-35.778842c-98.571106 0-178.758741 80.187635-178.758741 178.750772v252.878316a16.136337 16.136337 0 0 1 16.136337-16.136337H237.168297a16.136337 16.136337 0 0 1 16.136337 16.136337V246.216599c0-59.788117-48.648068-108.436185-108.432201-108.436186h-20.307879c-59.788117 0-108.432201 48.648068-108.432201 108.436186v287.350313c0 62.700626 51.006762 113.711373 113.703404 113.711373h224.406646a16.136337 16.136337 0 0 1-16.136337-16.136337v388.82596h32.272674z" fill="#6E6E96" p-id="1375"></path><path d="M354.242403 221.267032h88.478923v32.272675H354.242403zM576.836201 346.317669h124.054566v32.272674h-124.054566zM354.242403 725.497685h120.751597v32.272674H354.242403zM354.242403 429.624995H438.689234v32.272674H354.242403zM620.213066 194.098222h81.741504v32.272674h-81.745489zM172.455609 350.349761H237.164313v32.272674H172.459593zM32.264706 463.300136h79.681631v32.272674H32.264706zM824.431361 511.705163h66.047422v32.272674h-66.047422zM560.699864 902.989425h154.570172v32.272674h-154.570172zM597.00463 535.909669h118.265406v32.272674h-118.265406z" fill="#6E6E96" p-id="1376"></path><path d="M516.868791 46.392965s88.080495 0.960212 88.080495 132.445462v841.428302h110.312782V175.838263s-21.88167-179.571534-198.393277-129.445298z" fill="#6E6E96" opacity=".15" p-id="1377"></path><path d="M850.859095 420.489039s62.302198-30.842317 62.302198 115.723435v157.319326s4.032092 34.28872-34.28872 34.288721h-163.618474v30.308423h183.05778s68.80056 14.18404 68.80056-59.49328v-222.733248s3.199377-110.818785-116.253344-55.413377z" fill="#6E6E96" opacity=".15" p-id="1378"></path></svg>